<?xml version="1.0" encoding="UTF-8"?>
<svg xmlns="http://www.w3.org/2000/svg" xmlns:xlink="http://www.w3.org/1999/xlink" width="300px" height="170px" viewBox="0 0 300 170" version="1.1">
<g id="surface1">
<path style=" stroke:none;fill-rule:nonzero;fill:rgb(100%,0%,0%);fill-opacity:1;" d="M 0 0 L 75 0 L 78.09375 3.507812 L 221.90625 3.507812 L 225 0 L 300 0 L 300 170 L 225 170 L 221.90625 166.492188 L 78.09375 166.492188 L 75 170 L 0 170 Z M 0 0 "/>
<path style=" stroke:none;fill-rule:nonzero;fill:rgb(100%,100%,100%);fill-opacity:1;" d="M 75 0 L 225 0 L 225 170 L 75 170 Z M 152.8125 156.894531 L 151.40625 126.332031 C 151.363281 125.3125 151.734375 124.328125 152.40625 123.652344 C 153.082031 122.980469 153.988281 122.6875 154.875 122.859375 L 181.71875 128.207031 L 178.09375 116.875 C 177.792969 115.949219 178.042969 114.910156 178.71875 114.289062 L 208.125 87.300781 L 201.5 83.796875 C 200.574219 83.300781 200.117188 82.101562 200.4375 80.996094 L 206.25 60.738281 L 189.3125 64.8125 C 188.367188 65.035156 187.414062 64.472656 187.03125 63.464844 L 183.75 54.71875 L 170.53125 70.796875 C 169.910156 71.539062 168.933594 71.730469 168.128906 71.261719 C 167.328125 70.792969 166.890625 69.785156 167.0625 68.777344 L 173.4375 31.519531 L 163.21875 38.214844 C 162.734375 38.535156 162.152344 38.617188 161.613281 38.433594 C 161.074219 38.253906 160.625 37.828125 160.375 37.257812 L 150 14.167969 L 139.625 37.257812 C 139.375 37.828125 138.925781 38.253906 138.386719 38.433594 C 137.847656 38.617188 137.265625 38.535156 136.78125 38.214844 L 126.5625 31.519531 L 132.9375 68.777344 C 133.109375 69.785156 132.671875 70.792969 131.871094 71.261719 C 131.066406 71.730469 130.089844 71.539062 129.46875 70.796875 L 116.25 54.71875 L 112.96875 63.464844 C 112.585938 64.472656 111.632812 65.035156 110.6875 64.8125 L 93.75 60.738281 L 99.5625 80.996094 C 99.882812 82.101562 99.425781 83.300781 98.5 83.796875 L 91.875 87.300781 L 121.28125 114.289062 C 121.957031 114.910156 122.207031 115.949219 121.90625 116.875 L 118.28125 128.207031 L 145.125 122.859375 C 146.011719 122.6875 146.917969 122.980469 147.59375 123.652344 C 148.265625 124.328125 148.636719 125.3125 148.59375 126.332031 L 147.1875 156.894531 Z M 152.8125 156.894531 "/>
</g>
</svg>
